<?xml version="1.0" standalone="no"?>
<!DOCTYPE svg PUBLIC "-//W3C//DTD SVG 20010904//EN"
 "http://www.w3.org/TR/2001/REC-SVG-20010904/DTD/svg10.dtd">
<svg version="1.0" xmlns="http://www.w3.org/2000/svg"
 width="500.000000pt" height="499.000000pt" viewBox="0 0 500.000000 499.000000"
 preserveAspectRatio="xMidYMid meet">

<g transform="translate(0.000000,499.000000) scale(0.100000,-0.100000)"
fill="#faeac4" stroke="none">
<path d="M3475 4774 c-33 -14 -116 -39 -185 -56 -69 -17 -156 -46 -194 -64
-51 -25 -73 -31 -87 -24 -10 6 -24 10 -31 10 -8 0 -63 -71 -123 -158 l-110
-159 -223 -149 c-122 -82 -237 -158 -255 -169 -28 -17 -67 -22 -287 -36 -140
-8 -257 -14 -259 -12 -2 1 16 46 40 99 l43 97 -29 24 c-17 13 -59 38 -94 55
l-65 31 -215 -8 c-119 -4 -218 -9 -220 -11 -2 -2 27 -67 64 -144 l69 -140 -46
-48 c-26 -26 -52 -60 -58 -76 l-11 -30 -20 30 c-16 23 -19 40 -15 85 5 53 4
57 -27 87 -18 16 -43 32 -57 34 -23 3 -44 31 -138 186 -7 10 -46 0 -178 -49
-93 -33 -173 -65 -177 -69 -5 -4 36 -75 90 -156 65 -97 128 -208 180 -319 79
-165 132 -300 123 -308 -3 -2 -140 -81 -306 -176 l-301 -171 -16 -148 c-9 -81
-37 -326 -62 -546 -25 -219 -45 -405 -45 -413 0 -8 -26 -42 -59 -76 -32 -34
-57 -66 -55 -72 1 -5 5 -44 9 -87 l7 -76 123 -122 c68 -68 142 -133 164 -147
24 -14 76 -30 127 -39 86 -15 199 -67 282 -131 27 -20 59 -29 183 -48 l151
-22 8 21 c5 11 23 74 40 140 55 209 97 269 221 312 44 15 77 29 75 31 -8 8
-143 -42 -173 -63 l-31 -24 -66 37 c-51 29 -66 42 -66 60 0 32 41 115 106 213
l56 85 -6 85 c-3 47 -13 107 -21 134 -20 66 -19 121 6 268 11 68 18 137 14
153 -3 17 -12 80 -19 142 -15 122 -34 168 -103 244 -42 46 -51 95 -33 179 17
82 35 106 142 196 114 95 189 181 205 234 18 61 26 190 15 239 -8 34 -6 65 9
143 10 55 25 110 32 123 14 28 145 175 155 175 4 0 15 -7 25 -14 16 -12 14
-20 -28 -115 -25 -56 -45 -104 -45 -107 0 -3 24 -3 53 0 28 3 151 11 272 17
l220 12 255 172 255 171 103 149 c56 83 106 153 111 158 4 4 19 3 33 -3 21
-10 34 -7 88 20 34 17 117 45 184 61 66 17 156 44 200 60 43 17 80 29 81 27 2
-2 13 -67 25 -146 20 -132 21 -155 10 -306 -11 -159 -13 -169 -75 -367 -61
-195 -63 -205 -49 -238 8 -19 17 -32 20 -28 3 3 -1 17 -9 32 -13 25 -9 42 50
233 63 203 64 210 74 373 10 151 9 178 -10 305 -12 76 -21 142 -21 147 0 13
-33 6 -95 -19z m-1816 -549 c43 -43 38 -67 -28 -140 -34 -37 -63 -77 -66 -89
-31 -139 -37 -187 -31 -281 7 -108 -3 -184 -35 -246 -18 -37 -139 -156 -221
-219 -60 -46 -83 -81 -102 -156 -30 -116 -22 -147 65 -263 27 -35 51 -77 53
-95 30 -206 33 -317 10 -408 -18 -71 -14 -200 12 -323 8 -38 14 -83 14 -98 0
-32 -27 -89 -81 -169 -41 -60 -79 -146 -79 -178 0 -20 23 -40 94 -82 l46 -28
-29 -52 c-16 -29 -45 -113 -64 -186 -20 -74 -38 -137 -41 -140 -4 -3 -69 4
-145 15 -123 19 -145 25 -187 54 -71 49 -186 110 -214 115 -187 31 -191 33
-351 193 l-116 116 -8 89 -7 89 56 53 c31 30 56 60 56 68 0 9 12 116 26 238
14 123 42 369 62 547 l37 324 281 162 c155 88 293 168 307 178 l25 16 -38 103
c-59 162 -167 371 -268 520 -50 76 -92 141 -92 146 0 7 264 110 317 124 7 2
39 -40 71 -92 52 -84 62 -95 90 -98 21 -2 38 -14 55 -36 22 -28 24 -38 17 -76
-7 -38 -5 -51 17 -87 29 -50 38 -53 47 -17 4 15 31 52 60 83 l54 56 -64 134
c-35 74 -64 138 -64 142 0 9 139 16 317 15 109 -1 125 -3 142 -21z m61 -36 c0
-5 -4 -9 -10 -9 -5 0 -10 7 -10 16 0 8 5 12 10 9 6 -3 10 -10 10 -16z m-383
-1721 c-3 -8 -6 -5 -6 6 -1 11 2 17 5 13 3 -3 4 -12 1 -19z m-10 -450 c-3 -8
-6 -5 -6 6 -1 11 2 17 5 13 3 -3 4 -12 1 -19z"/>
<path d="M4700 3788 c-102 -66 -264 -166 -360 -220 -214 -122 -319 -185 -431
-258 -47 -31 -119 -69 -159 -84 -62 -23 -82 -26 -134 -20 -91 10 -97 14 -122
80 -13 32 -23 52 -23 44 -2 -31 37 -114 56 -121 11 -4 48 -10 84 -14 95 -9
169 20 379 152 96 60 252 152 345 205 94 52 250 148 349 212 98 65 184 120
191 122 30 12 36 -218 13 -526 l-13 -175 -169 -19 -168 -20 6 -85 c10 -133 37
-395 41 -408 2 -7 26 -24 54 -37 50 -26 68 -42 57 -53 -3 -3 -55 7 -116 22
-74 18 -126 26 -155 22 -36 -4 -57 1 -108 26 -43 21 -77 30 -114 31 -64 0 -83
-15 -114 -92 -24 -62 -37 -82 -50 -82 -5 0 -25 23 -45 50 -20 28 -40 47 -45
44 -5 -3 -8 0 -7 7 3 16 -122 85 -170 95 -20 4 -38 2 -47 -6 -17 -14 -20 -57
-6 -80 7 -10 4 -18 -9 -27 -54 -38 -66 -232 -20 -323 30 -59 37 -144 15 -194
-9 -22 -40 -64 -69 -95 -88 -93 -96 -128 -44 -205 35 -53 79 -85 153 -111 57
-21 75 -38 75 -73 0 -41 -46 -90 -121 -127 l-69 -35 6 -59 c6 -51 4 -61 -15
-80 -11 -11 -33 -21 -49 -21 -16 0 -48 -15 -78 -37 -28 -21 -59 -42 -68 -48
-10 -6 -23 -37 -32 -75 -11 -50 -26 -79 -61 -123 l-46 -58 -21 20 c-14 14 -36
21 -60 21 -44 0 -77 -29 -121 -105 -41 -72 -53 -84 -94 -91 -20 -4 -49 -13
-64 -21 -26 -13 -33 -12 -91 15 -57 27 -67 36 -108 103 -25 41 -54 99 -63 129
-36 112 -108 179 -211 194 -28 4 -22 1 21 -12 33 -10 66 -21 73 -26 32 -20 92
-111 107 -164 9 -31 38 -90 63 -130 43 -66 53 -76 112 -103 36 -16 73 -34 82
-40 10 -5 23 -9 29 -9 7 0 35 -21 63 -46 28 -25 65 -58 81 -73 17 -15 54 -40
84 -56 29 -16 61 -42 73 -57 11 -16 33 -35 48 -43 16 -8 40 -25 53 -38 13 -12
43 -33 67 -47 23 -14 63 -47 89 -73 25 -27 74 -69 107 -93 53 -38 71 -45 135
-53 135 -16 126 -21 125 59 -1 66 0 70 36 107 44 46 78 119 107 232 18 71 19
90 9 123 -9 30 -9 47 0 72 7 19 12 57 11 85 -3 72 14 87 116 100 107 14 153
28 181 56 19 19 22 28 14 53 -8 31 -8 31 216 198 l224 166 -5 102 c-4 55 -12
208 -20 339 l-13 238 40 97 c22 53 40 106 39 117 0 11 -20 81 -45 155 l-44
135 -39 -2 c-34 -2 -35 -1 -8 5 45 11 36 31 -30 72 l-60 37 -16 164 c-9 90
-18 198 -20 239 l-4 74 165 21 165 20 7 90 c4 50 12 160 18 245 9 117 10 182
1 264 -6 60 -11 115 -11 123 0 7 -3 13 -7 13 -5 0 -91 -55 -193 -122z m-906
-1133 c11 -8 30 -15 42 -15 11 0 41 -18 66 -40 25 -21 48 -37 51 -34 3 3 19
-15 37 -40 17 -25 29 -46 26 -46 -3 0 -18 18 -32 40 -15 22 -29 38 -31 36 -10
-10 52 -87 73 -92 39 -10 50 1 80 78 15 40 32 79 38 87 16 21 89 6 163 -35
l66 -37 61 12 c55 11 69 10 136 -9 41 -12 93 -25 115 -28 l40 -7 45 -135 46
-135 -43 -106 -42 -106 14 -269 c8 -148 17 -299 20 -336 l5 -68 -217 -162
c-120 -90 -221 -167 -225 -172 -3 -5 -4 -24 -1 -41 9 -56 -41 -79 -225 -101
-67 -8 -84 -31 -89 -123 -5 -86 -6 -139 -3 -176 5 -77 -56 -242 -113 -301 -34
-36 -40 -50 -46 -103 -4 -34 -12 -66 -17 -71 -7 -7 -35 -7 -85 0 -88 13 -119
31 -236 141 -45 43 -98 86 -115 95 -43 22 -76 47 -152 115 -35 31 -74 60 -87
64 -13 4 -37 20 -54 36 -71 67 -146 129 -158 130 -6 0 2 7 18 15 l30 15 -30
-6 c-25 -4 -27 -3 -12 6 10 6 25 8 33 5 37 -14 64 6 104 80 58 104 126 145
158 94 22 -36 53 -24 104 39 36 46 49 71 57 117 8 42 18 65 35 79 96 79 105
85 142 85 21 0 46 7 56 17 20 18 24 75 8 117 -9 24 -5 27 69 67 66 35 82 49
101 85 24 49 21 92 -8 116 -9 8 -43 25 -75 38 -72 28 -102 52 -137 107 -37 58
-30 80 46 163 91 99 96 110 95 183 -1 76 -15 157 -35 195 -38 74 -32 175 15
223 30 31 37 53 19 64 -11 7 -14 48 -3 58 11 11 37 7 57 -8z m518 -35 c54 -26
71 -30 118 -25 l55 5 -52 -15 -52 -15 -82 40 c-46 22 -76 40 -67 40 9 0 45
-14 80 -30z m-247 -140 c-3 -5 -14 -10 -23 -9 -14 0 -13 2 3 9 27 11 27 11 20
0z m-346 -240 c0 -8 -8 1 -19 20 -11 19 -19 44 -19 55 0 13 7 7 20 -20 10 -22
18 -47 18 -55z"/>
<path d="M3490 3687 c0 -5 5 -18 12 -30 6 -12 15 -35 20 -52 7 -27 7 -27 3 7
-3 32 -35 99 -35 75z"/>
<path d="M3502 3523 c-14 -65 -26 -159 -19 -153 7 7 39 192 33 197 -2 2 -9
-17 -14 -44z"/>
<path d="M1585 1546 c22 -8 71 -28 110 -45 38 -18 99 -40 136 -51 37 -10 85
-32 109 -48 23 -17 56 -36 73 -42 19 -6 46 -30 65 -56 40 -54 154 -115 212
-113 l35 2 -40 6 c-67 12 -160 66 -205 120 -25 30 -52 51 -70 54 -16 4 -44 19
-62 36 -20 18 -58 36 -95 45 -34 9 -109 36 -166 61 -58 25 -114 45 -124 44
-10 0 0 -6 22 -13z"/>
<path d="M2358 1183 c12 -2 30 -2 40 0 9 3 -1 5 -23 4 -22 0 -30 -2 -17 -4z"/>
</g>
</svg>
